<?xml version="1.0" encoding="utf-8"?>
<!-- Generator: Adobe Illustrator 16.0.0, SVG Export Plug-In . SVG Version: 6.00 Build 0)  -->
<!DOCTYPE svg PUBLIC "-//W3C//DTD SVG 1.1//EN" "http://www.w3.org/Graphics/SVG/1.1/DTD/svg11.dtd">
<svg height="512" width="512" version="1.1" id="Layer_1" xmlns="http://www.w3.org/2000/svg" xmlns:xlink="http://www.w3.org/1999/xlink" x="0px" y="0px"
	   viewBox="0 0 512 512" enable-background="new 0 0 512 512" xml:space="preserve">
<g id="pokemon_go">
	<g>
		<path fill="#434A54" d="M410.646,117.325c-5.875,0-10.654,4.781-10.654,10.672v42.67c0,5.89,4.779,10.656,10.654,10.656
			c5.906,0,10.688-4.766,10.688-10.656v-42.67C421.334,122.106,416.553,117.325,410.646,117.325z"/>
		<path fill="#434A54" d="M410.646,191.995c-5.875,0-10.654,4.781-10.654,10.671v42.655c0,5.898,4.779,10.672,10.654,10.672
			c5.906,0,10.688-4.773,10.688-10.672v-42.655C421.334,196.775,416.553,191.995,410.646,191.995z"/>
	</g>
	<path fill="#434A54" d="M133.336,506.664c-20.593,0-37.327-16.75-37.327-37.344V42.671c0-20.594,16.734-37.343,37.327-37.343
		h234.656c20.594,0,37.342,16.749,37.342,37.343V469.32c0,20.594-16.748,37.344-37.342,37.344H133.336z"/>
	<path fill="#656D78" d="M367.992,0.008H133.336c-23.562,0-42.67,19.101-42.67,42.663V469.32c0,23.562,19.109,42.672,42.67,42.672
		h234.656c23.562,0,42.654-19.109,42.654-42.672V42.671C410.646,19.109,391.555,0.008,367.992,0.008z M399.992,469.32
		c0,17.656-14.344,32-32,32H133.336c-17.64,0-31.999-14.344-31.999-32V42.671c0-17.656,14.359-31.999,31.999-31.999h234.656
		c17.656,0,32,14.343,32,31.999V469.32z"/>
	<g>
		<rect x="101.337" y="74.67" fill="#48CFAD" width="298.655" height="362.652"/>
	</g>
	<path fill="#5D9CEC" d="M335.994,42.671c0,5.89-4.781,10.655-10.656,10.655c-5.906,0-10.688-4.765-10.688-10.655
		c0-5.891,4.781-10.672,10.688-10.672C331.213,32,335.994,36.781,335.994,42.671z"/>
	<path fill="#656D78" d="M293.338,32H176.006c-5.906,0-10.671,4.781-10.671,10.672c0,5.89,4.766,10.655,10.671,10.655h117.332
		c5.875,0,10.656-4.765,10.656-10.655C303.994,36.781,299.213,32,293.338,32z"/>
	<path fill="#ED5564" d="M193.975,437.322h113.395c17.562-15.641,28.625-38.404,28.625-63.717c0-47.045-38.281-85.326-85.318-85.326
		c-47.061,0-85.341,38.281-85.341,85.326C165.335,398.918,176.413,421.682,193.975,437.322z"/>
	<path fill="#434A54" d="M140.883,387.402c4.156,4.156,4.156,10.906,0,15.078c-4.172,4.17-10.922,4.17-15.093,0
		c-4.156-4.172-4.156-10.922,0-15.078C129.961,383.23,136.711,383.23,140.883,387.402z"/>
	<path fill="#434A54" d="M375.555,387.402c4.156,4.156,4.156,10.906,0,15.078c-4.188,4.17-10.938,4.17-15.094,0
		c-4.156-4.172-4.156-10.922,0-15.078C364.617,383.23,371.367,383.23,375.555,387.402z"/>
	<path fill="#E6E9ED" d="M318.869,384.277l-66.318,3.719l-87.106-10.391c1.094,23.703,11.906,44.904,28.53,59.717h113.395
		c16.812-14.984,27.688-36.514,28.562-60.545L318.869,384.277z"/>
	<g>
		<path fill="#656D78" d="M325.338,480.273H176.006c-5.89,0-10.671-4.781-10.671-10.672c0-5.889,4.781-10.67,10.671-10.67h149.332
			c5.875,0,10.656,4.781,10.656,10.67C335.994,475.492,331.213,480.273,325.338,480.273z"/>
	</g>
	<path fill="#434A54" d="M334.963,386.918c0.688-4.344,1.031-8.781,1.031-13.312c0-2.891-0.125-5.734-0.406-8.547
		c-15.156,2.969-48.344,8.547-84.646,8.547c-36.374,0-69.919-5.594-85.169-8.578c-0.281,2.828-0.438,5.688-0.438,8.578
		c0,4.516,0.359,8.953,1.047,13.281c17.578,3.25,49.499,8.047,84.56,8.047C285.9,394.934,317.494,390.168,334.963,386.918z"/>
	<path fill="#E6E9ED" d="M272.309,384.277c0,11.781-9.539,21.326-21.32,21.326c-11.781,0-21.327-9.545-21.327-21.326
		s9.546-21.344,21.327-21.344C262.77,362.934,272.309,372.496,272.309,384.277z"/>
	<path fill="#434A54" d="M250.988,416.275c-17.64,0-31.999-14.357-31.999-31.998c0-17.656,14.359-32,31.999-32
		c17.641,0,32.006,14.344,32.006,32C282.994,401.918,268.629,416.275,250.988,416.275z M250.988,373.605
		c-5.89,0-10.671,4.781-10.671,10.672c0,5.875,4.781,10.656,10.671,10.656c5.875,0,10.672-4.781,10.672-10.656
		C261.66,378.387,256.863,373.605,250.988,373.605z"/>
	<path fill="#F6BB42" d="M348.242,117.036c-0.781-2.797-2.625-5.164-5.188-6.562c-2.529-1.391-5.561-1.68-8.311-0.805
		c-1.031,0.32-25.406,8.101-49.062,22.796c-16.975,10.554-28.037,21.249-35.021,31.452c-9.046-13.141-22.499-23.679-35.014-31.452
		c-23.64-14.695-48.014-22.476-49.045-22.796c-2.766-0.875-5.781-0.586-8.328,0.805c-2.547,1.398-4.406,3.765-5.172,6.562
		c-5.828,21.398,8.828,44.312,43.545,68.107c23.577,16.164,48.108,27.093,49.139,27.554c1.375,0.609,2.844,0.914,4.312,0.914
		c0.188,0,0.375-0.008,0.562-0.016c0.188,0.008,0.391,0.016,0.578,0.016c1.469,0,2.938-0.305,4.312-0.914
		c1.031-0.461,25.568-11.39,49.131-27.554C339.4,161.347,354.055,138.434,348.242,117.036z"/>
	<path fill="#FFCE54" d="M310.775,203.854c-0.438-6.609-2.375-25.085-10.125-34.562c-14.906-18.257-41.412-19.679-49.178-19.679
		c-0.344,0-0.609,0-0.812,0.008c-0.188-0.008-0.453-0.008-0.796-0.008c-3.031,0-11.078,0.25-20.234,2.578
		c-12.546,3.195-22.296,8.945-28.952,17.101c-7.75,9.476-9.672,27.952-10.109,34.562c-1.281,3.648-3.812,12.14-3.89,21.929
		c-0.141,18.374,8.593,32.108,24.577,38.686c27.608,11.359,36.265,12.953,38.718,13.125l0.687,0.031l0.703-0.031
		c2.453-0.172,11.109-1.766,38.725-13.125c15.969-6.578,24.719-20.312,24.562-38.686
		C314.588,215.994,312.057,207.501,310.775,203.854z"/>
	<path fill="#434A54" d="M236.879,195.401c4.156,4.164,4.156,10.921,0,15.085c-4.171,4.164-10.921,4.164-15.093,0
		c-4.156-4.164-4.156-10.921,0-15.085C225.958,191.237,232.708,191.237,236.879,195.401z"/>
	<path fill="#434A54" d="M279.559,195.401c4.154,4.164,4.154,10.921,0,15.085c-4.188,4.164-10.93,4.164-15.102,0
		c-4.156-4.164-4.156-10.921,0-15.085C268.629,191.237,275.371,191.237,279.559,195.401z"/>
	<path opacity="0.2" fill="#FFFFFF" d="M250.676,288.279c-1.796,0-3.578,0.062-5.343,0.172c44.568,2.75,80.005,39.891,80.005,85.154
		c0,25.312-11.094,48.076-28.625,63.717h10.656c17.562-15.641,28.625-38.404,28.625-63.717
		C335.994,326.561,297.713,288.279,250.676,288.279z"/>
</g>
</svg>
